<svg width="19" height="18" viewBox="0 0 19 18" fill="none" xmlns="http://www.w3.org/2000/svg">
<path d="M1.2666 4.73337C1.2666 6.20004 1.73327 7.33337 2.73327 7.93337C3.53327 8.46671 4.4666 8.53337 4.93327 8.53337C5.0666 8.53337 5.13327 8.53337 5.19993 8.53337C5.19993 8.53337 5.0666 9.53337 5.79994 10.5334H5.73327C4.4666 10.5334 0.266602 10.8 0.266602 14.2667C0.266602 17.8 4.13327 17.9334 4.93327 17.9334C4.99993 17.9334 4.99994 17.9334 4.99994 17.9334C4.99994 17.9334 5.0666 17.9334 5.13327 17.9334C5.59994 17.9334 6.93327 17.8667 8.13327 17.2667C9.6666 16.5334 10.4666 15.2 10.4666 13.4C10.4666 11.6667 9.2666 10.6 8.39994 9.80004C7.8666 9.33337 7.39994 8.93337 7.39994 8.53337C7.39994 8.13337 7.73327 7.80004 8.13327 7.46671C8.79994 6.86671 9.4666 6.00004 9.4666 4.33337C9.4666 2.86671 9.2666 1.86671 8.13327 1.26671C8.33327 1.20004 8.79994 1.13337 8.99994 1.13337C9.59994 1.06671 10.5333 0.933374 10.5333 0.466707V0.333374H5.93327C5.8666 0.333374 1.2666 0.533374 1.2666 4.73337ZM8.73327 13.7334C8.79994 15.1334 7.59994 16.2 5.79994 16.3334C3.93327 16.4667 2.4666 15.6667 2.39993 14.2667C2.33327 13.6 2.6666 12.9334 3.2666 12.4C3.8666 11.8667 4.6666 11.5334 5.53327 11.4667C5.6666 11.4667 5.73327 11.4667 5.8666 11.4667C7.4666 11.4 8.59994 12.4 8.73327 13.7334ZM7.53327 3.73337C7.99994 5.33337 7.33327 7.00004 6.19994 7.26671C6.0666 7.33337 5.93327 7.33337 5.79994 7.33337C4.79994 7.33337 3.79993 6.33337 3.4666 4.93337C3.2666 4.20004 3.2666 3.53337 3.53327 2.86671C3.73327 2.20004 4.19993 1.80004 4.6666 1.66671C4.79993 1.60004 4.93327 1.60004 5.0666 1.60004C6.2666 1.60004 6.99994 2.06671 7.53327 3.73337ZM15.2666 7.13337V4.13337H13.2666V7.13337H10.2666V9.13337H13.2666V12.1334H15.2666V9.13337H18.2666V7.13337H15.2666Z" fill="black"/>
</svg>
