<svg width="94" height="94" viewBox="0 0 94 94" fill="none" xmlns="http://www.w3.org/2000/svg">
<g filter="url(#filter0_d_1_48)">
<rect width="94" height="94" fill="#69B9FF"/>
<path fill-rule="evenodd" clip-rule="evenodd" d="M65.7999 18.8H28.1999L9.3999 37.6V65.8C9.3999 71.1267 13.7866 75.2001 18.7999 75.2001H75.1999C80.5266 75.2001 84.5999 71.1267 84.5999 65.8V37.6L65.7999 18.8ZM30.7066 25.0667H63.2932L75.8266 37.6H59.5332C59.5332 43.8667 53.8932 50.1334 46.9999 50.1334C40.1066 50.1334 34.4666 43.8667 34.4666 37.6H18.1732L30.7066 25.0667ZM78.3332 65.8C78.3332 67.68 77.0799 68.9334 75.1999 68.9334H18.7999C16.9199 68.9334 15.6666 67.3667 15.6666 65.8V43.8667H29.1399C31.9599 51.0734 39.1666 56.4001 46.9999 56.4001C54.8332 56.4001 62.0399 51.0734 64.5466 43.8667H78.3332V65.8Z" fill="white"/>
<rect x="5" y="5" width="84" height="84" stroke="white" stroke-width="10"/>
</g>
<defs>
<filter id="filter0_d_1_48" x="0" y="0" width="94" height="94" filterUnits="userSpaceOnUse" color-interpolation-filters="sRGB">
<feFlood flood-opacity="0" result="BackgroundImageFix"/>
<feColorMatrix in="SourceAlpha" type="matrix" values="0 0 0 0 0 0 0 0 0 0 0 0 0 0 0 0 0 0 127 0" result="hardAlpha"/>
<feOffset/>
<feColorMatrix type="matrix" values="0 0 0 0 0.180392 0 0 0 0 0.615686 0 0 0 0 1 0 0 0 1 0"/>
<feBlend mode="normal" in2="BackgroundImageFix" result="effect1_dropShadow_1_48"/>
<feBlend mode="normal" in="SourceGraphic" in2="effect1_dropShadow_1_48" result="shape"/>
</filter>
</defs>
</svg>
