<svg width="16" height="20" viewBox="0 0 16 20" fill="none" xmlns="http://www.w3.org/2000/svg">
<path d="M15.2668 5.8C14.7334 2.06666 11.0001 0.199999 7.06676 0.666665C3.93343 0.999999 0.800095 3.53333 0.666762 7.13333C0.600095 9.33333 1.2001 11 3.33343 11.4667C4.26676 9.86666 3.06676 9.53333 2.86676 8.33333C2.06676 3.53333 8.4001 0.333332 11.6668 3.66666C13.9334 6 12.4668 13.0667 8.8001 12.3333C5.26676 11.6 10.5334 6 7.73343 4.86666C5.46676 3.93333 4.26676 7.6 5.33343 9.46666C4.66676 12.6 3.33343 15.5333 3.86676 19.4667C5.66676 18.1333 6.26676 15.6667 6.73343 13.0667C7.6001 13.6 8.13343 14.2 9.26676 14.2667C13.4668 14.6 15.8001 10 15.2668 5.8Z" fill="black"/>
</svg>
